<?xml version="1.0" encoding="utf-8"?>
<!-- Generator: Adobe Illustrator 16.0.0, SVG Export Plug-In . SVG Version: 6.00 Build 0)  -->
<!DOCTYPE svg PUBLIC "-//W3C//DTD SVG 1.1//EN" "http://www.w3.org/Graphics/SVG/1.1/DTD/svg11.dtd">
<svg version="1.1" id="Layer_1" xmlns="http://www.w3.org/2000/svg" xmlns:xlink="http://www.w3.org/1999/xlink" x="0px" y="0px"
	 width="866.1px" height="307.1px" viewBox="0 0 866.1 307.1" enable-background="new 0 0 866.1 307.1" xml:space="preserve">
<g>
	<defs>
		<rect id="SVGID_1_" x="-566.5" y="-845.5" width="2000" height="2000"/>
	</defs>
	<clipPath id="SVGID_2_">
		<use xlink:href="#SVGID_1_"  overflow="visible"/>
	</clipPath>
	<path display="none" clip-path="url(#SVGID_2_)" fill="#525252" d="M0,96.1c0-31.3,0-62.7,0-94c0-1.7,0.3-2,2-2c288,0,576,0,864,0
		c1.7,0,2,0.3,2,2c-0.1,101.7-0.1,203.3,0,305c0,1.7-0.3,2-2,2c-288,0-576,0-864,0c-1.7,0-2.1-0.3-2-2c0.1-26.3,0-52.7,0-79
		c1.9-0.2,3.8-0.4,5.7-0.5c1.3-0.1,2.5-0.2,3.7,0.9c2.2,2.1,4.8,1.7,6.4-1.1c0.6-1.1,1.4-1.6,2.5-1.7c1.5-0.1,3-0.3,4.5,0
		c7.9,1.7,15.8,1.8,23.8,1.6c2.8-0.1,5.7-1.1,8.6,0.2c0.9,0.4,2.1,0.1,2.7-0.8c1.6-2.3,4.3-1.2,6.3-2.1c0.7-0.3,1.4,0.4,1.7,1.2
		c0.2,0.6,0.3,1.3,0.8,1.8c0.4,0.4,1.4,0.8,0.4,1.5c-0.7,0.4-1.4,1.1-2.3,0.5c-0.3-0.2-0.5-0.5-0.6-0.8c-0.6-0.9-1.5-1.7-2.4-0.8
		c-1.1,1,0.1,1.8,0.7,2.5c0.8,0.9,1.7,1.6,2.5,2.5c1.4,1.5,2.7,1.9,4.2,0.2c1-1.1,2.2-1.3,2.9,0c1.2,2.3,2.8,2.9,5.2,1.8
		c0.6-0.2,1.3-0.1,2-0.1c1.5,0.1,2.8-0.4,3.8-1.6c2.6-3.1,5.7-5.6,9.3-7.4c2.2-1.2,1.7-2.3,0.4-3.6c-0.8-0.8-1.7-1.5-1.2-2.8
		c0.5-1.3,1.8-1.2,2.8-1.1c2.4,0.3,4.2-0.6,5.7-2.5c1.5-1.9,3.4-3.4,5.3-4.6c1.9-1.3,2.5-2.6,2.3-4.4c-0.1-1.7,0.6-2,1.9-2.2
		c2.6-0.4,3.9-2,4.2-4.5c0.1-1,0.4-1.8,1.6-1.9c0.1,1.5-0.5,3.2,0.8,4.5c1,1,1.2,2.3,1.2,3.7c0,1.8,0.2,3.5,0.4,5.2
		c0.7,5.4,1.5,10.8,0.6,16.3c-0.1,0.9-0.3,1.8-0.8,2.6c-1.8,0.6-2.6,2.2-2,3.6c0.6,1.5-0.3,3.9,2.2,4.5c1.1,2.7,3.5,3.9,5.9,5
		c3.2,1.6,7.1,1.8,9.5,5c0.8,1.1,2.1,0.4,2.9-0.4c1.4-1.3,3-1.7,4.8-1.2c-0.3,1.2-0.8,2.5,0.5,3.4c1.1,0.8,1.8-0.1,2.4-0.9
		c-0.3,2.1-0.5,4.1-0.7,6.2c-0.2,1.8-0.1,3.5,2.1,3.9c2.3,0.4,2.7-1.6,3-3.2c0.5-2.4,0-4.8-0.2-7.2c2.6,1.2,3.2,1,3.5-1.2
		c0.3,0.4,0.7,0.7,0.9,1.2c0.6,1.1,1.5,1.8,2.8,1.6c1.3-0.2,2.2-1.1,2.3-2.3c0.1-3.1,2-4.5,4.7-5.2c1-0.3,2-0.9,3-1.2
		c2-0.7,2.9-2,2.4-4c-0.4-1.6,0-2.7,1.2-3.8c1-1,1.7-2.1,1.1-3.6c-0.7-1.5-0.1-2.3,1.3-2.8c2.2-0.8,3.1-2.6,3.1-4.9
		c0-2.4-0.7-4.6-2-6.6c-0.4-0.7-1.1-1.4-0.7-2.3c1.4-3.3-0.2-5.8-2-8.3c-0.7-1-1.3-1.9-1.1-3.2c0.6-4.8,0.1-9.7,0.3-14.5
		c0.3-6.1-1.1-12.3,1.3-18.3c0.3-0.6,0.2-1.6-0.2-2.2c-0.7-1.3-0.4-2.3,0.3-3.5c1.3-2.1,1.1-4.2-0.5-6c-0.8-1-0.9-2-0.7-3.3
		c0.4-4.4,1.2-8.7,1.3-13.1c0.1-9.7,2.1-19.3,2.3-29.1c0.2-10.3-0.4-20.6-0.4-31c0-0.7-0.1-1.3-0.5-1.9c-0.2-0.9-0.4-1.8-0.5-2.6
		c0-0.1-0.1-0.3-0.1-0.4c0.2-1.1,0.3-2.1,0-3.2c-0.2-1.7-1.2-3-2.3-4.3c-0.3-0.3-0.5-0.5-0.8-0.8c-0.3-0.5-0.6-1-0.9-1.5
		c-3.1-5.2-6.2-6.6-12.2-5.4c-1.6,0.3-3.1,0.3-4.7,0.2c-0.4-0.9-0.3-1.7,0-2.6l0-0.6c-0.1-2.3,0.1-4.7,0.2-7
		c0.1-1.6,0.8-2.1,2.3-1.7c2.4,0.6,4.8,0.6,7.2,0.5c10.4-0.6,20.8-0.6,31.1,1.4c0.9,0.2,1.6,0.3,1.6,1.4c-0.1,4.1,0.2,8.1-0.3,12.2
		c-1,8.3-2.9,16.4-2.9,24.8c0.1,17.6,0.7,35.2,0.2,52.7c-0.1,3.5,1.9,5.9,5.1,7.1c2.9,1.1,5.9,0.6,8.9,1.2
		c5.4,1.1,10.8-0.2,16.2-0.5c5.8-0.3,11.6-0.1,17.4,0.5c3.2,0.3,5.4-1.9,7.7-3.6c1.5-1.1,0.7-3,0.7-4.5c0-19.8,0.1-39.5,0-59.3
		c0-2,0.5-2.8,2.6-2.8c6.7,0.1,13.3,0,20,0c9.1,0,16,4.1,20.5,12c5.7,10,7.6,21.1,8.8,32.3c1.8,16.3,1.6,32.6-1,48.8
		c-1.4,8.9-3.5,17.6-8,25.6c-4.1,7.1-9.5,12.2-18.4,12.1c-7.4,0-14.8-0.1-22.3,0c-2,0-2.4-0.8-2.3-2.5c0.1-5-0.1-10,0.1-15
		c0.1-2.5-0.8-3-3-2.6c-2.5,0.5-5.1,0.9-7.7,1.1c-2.1,0.2-2.8,1-2.8,3.2c0.1,11,0.1,22,0,33c0,2.2,0.7,2.8,2.8,2.8
		c12.7-0.1,25.3-0.1,38,0c1,0,2,0,3,0.2c4.7,1,9.4,1.5,14.1,1.5c10-0.1,20-0.3,30-0.4c0.8,0,1.8-0.3,2.5,0c3.7,1.9,7.7,1.1,11.6,1.1
		c1.3,0,2.8-0.2,3.3-1.7c0.9-2.7,2.4-5.4,2.8-8.2c1.6-9.2,3.6-18.3,5.4-27.4c0.5-2.5,0.4-5.2,1.8-7.5c3.1-4.9,4.2-10.5,6-15.8
		c1.4-4.1,1.2-8.6,2.3-12.7c4.1-14.8,7.1-29.8,9.7-44.9c0.7-4,1.5-8.1,2.2-12.1c0.2,0,0.4,0,0.6-0.1c0.3,1.5,0.7,2.9,1,4.4
		c1.7,7.6,3,15.2,4.6,22.8c2.6,12.1,4.1,24.5,6.5,36.6c1.3,6.5,1.2,13.3,3,19.7c0.8,3,1.5,6,1.9,9c1.2,9.3,2.1,18.5,3.3,27.8
		c0.2,1.6,0.8,3.1-0.8,4.3c-0.5,0.4-0.4,1.1-0.2,1.7c0.4,1.1,4.3,3.9,5.4,3.5c2.2-0.7,4.3,0,6.4,0.1c17.1,1,34.3,2.1,51.4,3.6
		c4.5,0.4,9,0.8,13.5,0.2c4.2-0.6,8.4-0.8,12.7-0.5c7.2,0.6,14.3,2,21.6,1.8c5.7-0.2,7.7-2.1,7.9-7.8c0.2-7.2,0.2-14.3,0-21.5
		c-0.3-18.2-0.2-36.5-0.2-54.7c0-1.2,0-2.3-0.5-3.4c-1.7-3.4-3.6-6.5-6-9.5c-0.8-1-1.7-1.5-3-1.5c-10.5,0-21,0-31.5,0
		c-1.6,0-2.2,0.5-2.2,2.2c0.1,4.9,0.1,9.8,0,14.7c0,1.7,0.6,2.3,2.3,2.3c5.4-0.1,10.9,0.3,16.2-0.1c4.3-0.4,6.7,1.1,8,5.1
		c0.7,2.2,2.5,3.9,2.3,6.5c-0.8,8.8-0.6,17.7-0.9,26.5c-0.2,5.7-0.3,11.5-1.2,17.2c-0.5,3.2-2.6,5-5.7,5c-5.8,0-11.5-0.6-17.2-1.3
		c-3.6-0.4-6.8-2.5-10.3-3.5c-6-7.3-13.4-13.7-14.6-24c-1.1-9.7-3.4-19.2-3.8-29c-0.4-9.2-0.3-18.3-0.7-27.5
		c-0.5-10.1,1.4-19.9,4-29.6c1.3-4.9,2.7-10,6.4-13.9c3.9-4.2,8-8.3,12.2-12.2c1.3-1.2,2.6-1.6,4.3-1.5c3.3,0.1,6.4,1.2,9.7,1.1
		c8-0.3,16,0.5,24.1-0.2c10.7-0.9,21.5-0.3,32.2-0.5c2.1,0,2.5,0.8,1.7,2.6c-1.2,2.8-2,5.6-2.6,8.6c-2.3,11-2.8,22.1-1.1,33.3
		c1.9,12.4,7.7,21.9,19.4,27.5c7.7,3.7,15.8,6.3,23.4,10c7.3,3.5,13.5,8.1,15.2,16.7c1.3,6.6,1.5,13.2,0.3,19.9
		c-2.6,15-15,23.6-29.7,20.3c-4.1-0.9-7.6-2.5-9.3-7.5c-3.3-9.6-4.1-19.6-6.1-29.5c-0.3-1.6-1.1-2.2-2.6-2.5
		c-4.3-0.6-8.6-0.4-13-0.5c-1.5,0-2.1,0.6-2,2.1c0.2,3.5,0.1,7,0.5,10.5c1,10.8,3.4,21.2,9,30.6c8.8,14.8,23.9,20.6,40.1,14.9
		c13.9-4.9,21.7-15.4,24.7-29.6c2.8-13.3,3.1-26.6,0.1-39.9c-2.6-11.7-8.6-20.8-20-25.8c-8.3-3.7-16.9-6.6-25-10.7
		c-4.7-2.4-9.3-5-11.2-10.4c-3.5-9.7-2.9-19.3,0.8-28.8c2.1-5.6,5.6-9.9,11.5-11.6c5.3-1.5,10.6-1.3,15.7,0.9
		c6.6,2.8,11.1,9.8,11.1,16.9c0,4.6,0,9.2,0,13.8c0,1-0.1,2,0.8,2.8c1.6,1.5,7.5,2,9,0.5c1.3-1.2,2.6-1.4,4.1-1.3
		c1.7,0.1,2.4-0.4,2.4-2.2c-0.1-10.3-1.1-20.5-5.1-30.1c-5.4-12.9-16.8-22.6-32.5-22.6c-12.2,0-24.3,0-36.5,0
		c-5.6,0-11.2-0.1-16.7,0.4c-11.9,0.9-23.8,0.4-35.7,0.6c-0.7,0-1.5-0.2-2.2-0.3c-5.8-1.1-11.4-0.4-16.9,1.9
		c-8.3,3.4-13.9,9.9-18.4,17.3c-9.5,15.6-13.2,33-14.8,50.8c-1.9,20.6-1.4,41.1,2.7,61.4c2,9.7,5,19.1,9.9,27.9
		c1,1.7,0.9,2.2-1.2,2.3c-7.4,0.3-14.6-0.9-21.9-2c-1.2-0.2-1.7-0.7-1.9-1.8c-0.5-2.5-1.1-5-1.7-7.6c-3.1-15.2-6.2-30.3-9.4-45.5
		c-3.2-15.1-6.4-30.3-9.6-45.4c-3.7-17.8-7.4-35.7-11.1-53.5c-0.3-1.3-0.8-1.9-2.1-1.9c-3.8,0-7.7,0-11.5,0c-1.2,0-2.1,0.4-2.3,1.7
		c-0.3,1.8-0.7,3.6-1.1,5.4c-2.2,10-4.3,20-6.5,30c-2.1,9.8-4.3,19.7-6.4,29.5c-2.1,9.9-4.3,19.8-6.4,29.8
		c-2.2,10.2-4.4,20.5-6.7,30.7c-1.6,7.2-3.2,14.3-4.7,21.5c-0.3,1.2-0.6,1.9-2.1,1.9c-7.5,0-15,0.2-22.5,0.3c-1.9,0-2.6-0.3-1.7-2.4
		c6.6-14.4,9.4-29.8,10.8-45.4c1.6-17.9,1.3-35.8-1.8-53.6c-1.9-10.7-4.9-21.1-10.2-30.6c-7-12.5-17-19.6-32-18.9
		c-10.6,0.5-21.3,0.2-32,0c-2.6,0-3.2,0.7-3.2,3.2c0.1,23.5,0.1,47,0.1,70.5c0,3.6,0,3.6-3.6,3.5c-7-0.2-14,1.1-21,0.9
		c-3.9-0.1-7.4-3.5-7.4-7.3c0-9.3-0.1-18.7-0.1-28c0-7.2-0.8-14.3,0.4-21.5c0.8-4.4,1.3-8.9,1.9-13.3c1.1-7.7,1.2-15.3-1.4-22.9
		c-1.5-4.3-4.5-7.8-8.4-8.7c-7.4-1.7-14.9-2.3-22.5-2c-7.3,0.3-14.7,0.8-21.7,2.9c-5.8,1.8-9.4,4.8-8.7,11.5c0.3,2.3,0.1,4.7,0.2,7
		c-0.3,1-0.2,2,0,3c0.3,0.9,0.6,1.8,0.4,2.7c-1.1,0-2.2,0-3.2-0.1c-7.9-0.9-13.6,2.9-15.9,10.6c-0.9,1.6-0.9,1.6-2.4,0.8
		c-0.6-0.3-1,0-1.1,0.5c-0.2,0.6,0,1,0.7,1c1.5-0.2,1.2,0.6,0.8,1.4c-0.6,1.4-1.3,2.9-1.9,4.3c-0.4,1.1-0.4,1.8,1.1,1.7
		c0.2,0.9,0.4,1.8,1,2.5c0.2,1-0.9,1.4-0.9,2.3c-1.6,1.6-0.7,3.1,0.3,4.5c-0.2,1-1.6,2.2,0.5,2.7c0.1,0.7,0,1.3-0.5,1.8
		c-1.8,1.8-1.6,3.8-0.3,5.7c-4.7,0.5-7.6-3-11-5.1c-0.6-0.4-1.1-1.3-1.8-1.1c-2.1,0.6-2.9-0.8-3.6-2.2c-2.5-2.3-4.5-1.9-6.8,1.4
		c-1,0.8-1.1,1.6,0.1,2.3c0.4,0.4,0.8,0.9,1.2,1.3c0,3.5,0,3.4-3.6,3.2c-1.8-0.1-3.7-1.2-5.5,0.2c-0.6,0.4-0.9-0.1-1-0.6
		c-0.2-0.7-0.4-1.6-1.4-1.4c-0.9,0.2-0.7,1-0.7,1.6c0,0.3-0.2,0.7-0.4,0.8c-2,1.4-1.4,2.1,0.5,2.7c0.7,0.2,1.7,0.4,1.2,1.4
		c-0.3,0.8-1.1,0.4-1.8,0.2c-2.9-1.3-6-1.9-8.9-3c-1.6-0.7-3.1-0.1-4.6,0.1c-1.4,0.2-0.7,1.7-1.1,2.5c-0.6,1.4-1.8,2.1-3.3,1.7
		c-3.6-0.8-7.2-2.3-10.6-3.6c-4.5-1.8-8-5.8-13.3-5.5c-0.4,0-0.9-0.4-1.4-0.5c-4.3-1.1-8.4-2.8-13-0.9c-1.7,0.7-3.9,0.7-5.9,0.2
		C14.3,96.8,7.2,96.3,0,96.1 M177.9,258.8c1.4-0.1,1.5-1.1,1.5-2.2c0.7-1.1,1-2.3-0.2-3.1c-1.5-0.9-3.1-0.7-4.3,0.6
		c-1.1,1.3-2.1,2.8-0.9,4.5C175,260.1,176.5,259.9,177.9,258.8 M82.5,92.4c-1.2-0.5-2.2-0.4-3,0.7c-0.5,0.7-0.3,1.4,0.1,2.1
		c0.5,0.8,1.2,1,2.1,0.8c0.5-0.1,0.9-0.4,1.3-0.6c0.8,1.5,1.9,2.8,3.8,2.6c1.3-0.1,2.4-0.2,3.5,0.7c0.7,0.6,1.4,0.2,1.7-0.8
		c0.3-1.3-0.2-2.4-1.2-3.3c-0.9-0.9-1.9-1.9-3.2-1.2c-1.5,0.8-2.3,1.1-3-0.9C84.3,91.4,83.2,92.1,82.5,92.4 M764.4,138
		c0,16.3,0,32.7,0,49c0,8.3,0,16.5,0,24.8c0,1.2,0.2,2.5-1.6,2.5c-5.9-0.1-11.8,0.6-17.7,0.2c-3.7-0.3-3.7-0.3-3.7-3.9
		c0-22.3,0-44.5,0-66.8c0-1.6,0.1-2.8-2.3-2.8c-12.8,0.1-25.7,0.1-38.5,0c-1.8,0-2.5,0.5-2.4,2.4c0.1,4.7,0.2,9.3,0,14
		c-0.1,2.2,0.5,2.9,2.8,2.9c8.4-0.1,16.8,0,25.2-0.1c2.4,0,2.9,0.8,2.9,3c-0.4,8.8-1,17.6-3.1,26.3c-1.9,7.9-5.2,15.1-11.2,20.8
		c-3,2.9-6.4,5.1-10.5,5.9c-11.7,2.4-21.3-2-27.2-12.4c-5.2-9.1-7.5-19.2-8.8-29.5c-2.6-20.9-2.6-41.9,1.8-62.7
		c2-9.3,5.5-18,11.7-25.4c3.3-4,7.3-7.2,12.6-8c10.5-1.7,18.8,2.2,24.7,11c4.3,6.4,6.1,13.8,7.1,21.4c0.3,2.1,0.9,3,3.1,2.8
		c2.7-0.2,5.3-0.1,8,0c2.1,0.1,2.8-0.4,2.4-2.7c-0.8-5.1-1.4-10.2-2.6-15.2c-1.9-7.7-4.5-15.1-8.9-21.8
		c-12.7-19.3-40.4-23.7-56.4-1.3c-5.9,8.3-9.9,17.5-12.7,27.2c-2.9,10.1-4.6,20.5-5.3,30.9c-1.7,24.3-1.1,48.5,6.4,72
		c2.8,8.8,6.7,17,13.2,23.8c5.6,5.8,12.1,9.8,20.4,10.5c3.2,0.3,6.3-0.7,9.5-0.2c16.9,2.4,33.8,1,50.7,1c12.7,0,25.5-1.6,38.2-1.3
		c14.2,0.3,28.3-1.5,42.3-2.8c2.8-0.3,6.4-3.9,6.1-6.6c-0.3-3.2-0.2-6.5-1.2-9.6c-1.1-3.3-3.4-5-6.8-5c-13.9,0-27.8,0-41.8,0
		c-1.3,0-2.7,0.4-2.7-1.8c0.2-5.9-0.8-11.8-1.5-17.7c-0.4-3.6-0.4-3.5,3.2-3.7c9.2-0.4,18.5-1.1,27.6-2.4c3.3-0.5,4.4-2.7,2.7-5.5
		c-0.5-0.9-0.6-1.5-0.5-2.5c0.4-3.2-2.2-5.8-5.3-5.3c-8.4,1.6-17,0.8-25.4,1.9c-2.4,0.3-3.3-0.5-3.6-3c-1.1-11.2-0.2-22.5-1.2-33.7
		c-0.1-1.8,0.7-2,2.2-2c6.2-0.1,12.5-0.2,18.7-0.4c4-0.1,7.9-0.9,11.6-2.6c2.1-1,2.6-2.5,1.9-4.7c-0.5-1.6-1.6-2.9-1.8-4.6
		c-0.4-2.5-2.5-3.9-5.1-3.7c-0.7,0.1-1.6,0.4-2.2-0.1c-1.8-1.4-3.9-1.3-5.8-0.7c-6.1,1.8-12.5,0.5-18.6,1.9c-1.5,0.4-2.5-0.2-2.6-2
		c-0.7-11.2-2.8-22.3-2.6-33.6c0-2.4,0.8-3.1,3.1-3.1c16.6,0.1,33.2,0,49.8,0.1c2.3,0,3.1-0.7,3-3c-0.1-4.9-0.2-9.8,0-14.7
		c0.1-2.5-0.6-3.3-3.2-3.3c-21.8,0.1-43.5,0.1-65.3,0c-2.4,0-3.1,0.7-3.1,3.1C764.4,89.1,764.4,113.5,764.4,138 M624.1,190.8
		c0.1,1.1,0.1,3.1,0.2,5c0.1,1.4-0.2,2.2-1.8,2.4c-1.4,0.1-2.7,0.8-3.3,2c-1,1.7-2.3,2.1-4.1,2.1c-3.6,0-5.7,2.3-6.1,5.9
		c-0.2,2.2,0.7,4.1,1.1,6.1c1.5,7.2,2.5,14.5,8.3,20.3c5,5,11.2,6.5,17,2.5c0.4-0.3,0.9-0.5,1.3-0.8c3.5-1.9,5.9-4.8,7.2-8.6
		c1.8-5.3,2.8-10.8,4.8-16c0.8-2-0.5-4.6-2.4-5.8c-1.9-1.2-3.6-0.7-5.3,0.6c-0.6,0.5-1,1.7-1.9,1.3c-1-0.4-0.6-1.6-0.7-2.5
		c-0.2-3-1.3-5.5-4.4-6.3c-1.8-0.5-2.2-1.5-2.1-3c0.1-4-0.3-8-0.9-11.9c-0.4-2.8-1.8-4.3-3.8-4.2c-2,0.2-3.2,1.8-3.3,4.5
		C624,186.2,624.1,188.1,624.1,190.8 M65.5,89c2.9,0.2,5.4-0.5,7.4-2.5c2.7-2.7,1.6-6.6-2.1-7.5c-3-0.8-6.1-0.7-9.1,0.1
		c-1.8,0.5-3.3,1.7-3.6,3.7c-0.3,2.2,0.5,3.9,2.4,5.1C62.1,88.9,63.8,89.1,65.5,89 M93,239.1c-1.3,0-2.8-0.1-4.2,0
		c-1.6,0.1-2.5,1.2-3,2.6c-0.4,1.3,0,2.4,1.1,3.3c1,0.8,2,1.5,3.2,1.9c3.6,1.3,7.4,1.2,11.1,0.9c2.5-0.1,3.7-2.3,3-4.7
		c-0.5-1.8-2-2.6-3.6-3.2C98.2,239.2,95.6,238.9,93,239.1 M20.9,236.5c2.6,0,4-1.2,4-3.4c0-2.7-2.2-4.9-4.9-4.9
		c-2.6,0-4.4,1.7-4.3,4.1C15.8,234.8,17.8,236.5,20.9,236.5 M207.3,40c-1.4,0-2.2-0.1-2.9,0.5c-0.8,0.7-2.1,1.1-2,2.3
		c0.1,1.2,1.5,1.1,2.3,1.5c2.1,0.9,4.6,0.7,6.6,2.1c1,0.7,2.2,0.9,3.1-0.3c1-1.3,0.1-2.3-0.7-3C211.7,41.2,209.4,40.3,207.3,40
		 M94.1,234c2.2-0.1,3.6-1.4,4.6-3c0.6-1,0.4-2.1-0.5-3c-1.5-1.5-3.1-1.1-4.8-0.4c-0.1,0.1-0.3,0.1-0.5,0.2
		c-1.8,0.5-3.1,1.5-2.7,3.5C90.7,233.3,92.3,234,94.1,234 M50.4,91.4c-0.3-1.6-1.1-2.7-2.9-2.6c-1.6,0-2.7,1-2.7,2.7
		c-0.1,1.8,1,2.8,2.7,2.9C49.3,94.4,50.2,93.3,50.4,91.4 M6.9,231.7c-1.2,0.2-2.5,0.7-2.5,2.3c0,1.5,1,2.6,2.5,2.6
		c1.5,0,2.4-1,2.5-2.6C9.4,232.6,8.5,231.9,6.9,231.7 M81.3,101.4c0-1.5-2.5-4.2-3.9-4.2c-0.7,0-1.3,0.2-1.6,0.9
		c-0.3,0.8-0.2,1.7,0.5,2.2c1,0.8,2,1.5,3,2.2C80.6,103.3,81.3,103,81.3,101.4 M34.9,85.1c-0.1-0.9-0.7-1.4-1.7-1.3
		c-0.9,0-1.4,0.5-1.4,1.4c0,0.9,0.5,1.6,1.5,1.6C34.2,86.8,34.7,86.1,34.9,85.1 M168.4,253.5c0-0.8-0.4-1.3-1.2-1.3
		c-1,0-1.5,0.7-1.5,1.6c0,0.8,0.5,1.2,1.3,1.1C167.9,254.9,168.3,254.3,168.4,253.5 M49.7,235.7c-0.1-0.7-0.5-1.2-1.3-1.2
		c-0.6,0.1-1.1,0.5-1.1,1.2c0,0.8,0.5,1.2,1.3,1.1C49.3,236.8,49.7,236.4,49.7,235.7 M25.2,96.9c-0.1,0.1-0.3,0.1-0.4,0.2
		c0,0.1,0.1,0.3,0.2,0.4c0.1-0.1,0.3-0.1,0.4-0.2C25.4,97.2,25.3,97.1,25.2,96.9"/>
	<path clip-path="url(#SVGID_2_)" fill="#973435" d="M101.7,94.5c0.8,1.5,1.5,2.9,3.6,2.2c0.7-0.2,1.2,0.7,1.8,1.1
		c3.5,2.1,6.3,5.6,11,5.1c1.8,2.7,0.6,5.5,0,8.2c-1.7,0.1-4-1-4.6,1.9c-0.6,3.2,0.2,4.8,3,5.8c-2,3-1.7,6.6-2.4,9.9
		c-0.6,2.8,0.3,5.5,1,8.2c-3.1,1.8-5.6,4.1-6.9,7.6c-0.4,1-0.6,2.4,0.4,3c1.5,0.8,2.3,2.9,4.4,2.5c0.1,0,0.2-0.2,0.3-0.4
		c2.3,3.2,1.3,7.4,3.3,10.8c-4.4-0.2-4.7,0.1-4.6,4.6c0,0.4,0,0.8,0,1.2c0.1,1.1,0.5,2.1,1.5,2.4c1.4,0.4,1-1.2,1.7-1.7
		c0.1,3.1,2.2,5.8,1.5,9c-0.9,1.8-1.7,3.7-2.6,5.5c-1,0.3-1.8,1-2.4,1.8c-2.2,3-5.9,2.7-8.8,3.4c-1.9,0.5-5.1-1.3-6.9-2.7
		c-2.5-1.8-4.4-3.3-7.5-1.9c-0.7,0.3-1.6,0.1-2.5,0.1c-3.3,0-6.7-0.2-10-0.1c-3.5,0.1-7,0.4-10.3,1.5c-0.6,0.2-1.2,0.3-1.3,1
		c0,0.7,0.6,1.2,1.1,1.2c2.4-0.1,4.3,2.3,6.9,1c0.8-0.4,1.8,0.1,2,1c0.7,2.8,3.1,2.5,5.1,3c0.5,0.1,1.2-0.1,1.7,0.2
		c2.8,1.8,6.3,1.2,9.2,2.7c0.5,0.3,1.3,0.5,1.8-0.2c0.4-0.6,0.2-1.3-0.4-1.8c-0.5-0.4-0.8-0.9-0.4-1.5c0.3-0.4,0.9-0.6,1.3-0.4
		c1.6,0.8,3.8,0.2,5,1.1c3.5,2.5,7.9,2.9,11.3,5.4c0.6,0.4,1.2,1,1.7,0.2c1-1.9,2.3-1.1,3.6-0.6c0.1,0.7-0.1,1.5,0.4,2.1
		c0,0.2,0,0.4,0.1,0.6v0c-1.2,0.1-1.5,0.9-1.6,1.9c-0.3,2.5-1.6,4.1-4.2,4.5c-1.3,0.2-2,0.6-1.9,2.2c0.1,1.8-0.4,3.1-2.3,4.4
		c-1.8,1.2-3.8,2.8-5.3,4.6c-1.4,1.9-3.3,2.7-5.7,2.5c-1-0.1-2.3-0.2-2.8,1.1c-0.5,1.3,0.4,2,1.2,2.8c1.3,1.3,1.8,2.4-0.4,3.6
		c-3.5,1.9-6.6,4.4-9.3,7.4c-1,1.2-2.2,1.7-3.8,1.6c-0.7,0-1.4-0.2-2,0.1c-2.4,1-3.9,0.5-5.2-1.8c-0.7-1.3-1.9-1.1-2.9,0
		c-1.5,1.7-2.8,1.3-4.2-0.2c-0.8-0.9-1.7-1.6-2.5-2.5c-0.6-0.7-1.8-1.5-0.7-2.5c1-0.9,1.8-0.2,2.4,0.8c0.2,0.3,0.4,0.6,0.6,0.8
		c0.9,0.6,1.6,0,2.3-0.5c1-0.7,0.1-1.1-0.4-1.5c-0.5-0.5-0.6-1.2-0.8-1.8c-0.3-0.8-1-1.5-1.7-1.2c-2.1,0.8-4.7-0.2-6.3,2.1
		c-0.6,0.9-1.9,1.1-2.7,0.8c-2.9-1.2-5.7-0.2-8.6-0.2c-8,0.2-15.9,0-23.8-1.6c-1.4-0.3-3-0.1-4.5,0c-1.1,0.1-1.9,0.6-2.5,1.7
		c-1.6,2.7-4.1,3.2-6.4,1.1c-1.2-1.1-2.4-1-3.7-0.9c-1.9,0.2-3.8,0.3-5.7,0.5v-132c7.1,0.3,14.3,0.8,21.2,2.5c2,0.5,4.1,0.5,5.9-0.2
		c4.6-1.8,8.8-0.2,13,0.9c0.5,0.1,0.9,0.6,1.4,0.5c5.4-0.3,8.9,3.7,13.3,5.5c3.4,1.4,6.9,2.8,10.6,3.6c1.4,0.3,2.6-0.4,3.3-1.7
		c0.4-0.8-0.4-2.3,1.1-2.5c1.5-0.2,3-0.8,4.6-0.1c2.9,1.2,6.1,1.7,8.9,3c0.6,0.3,1.4,0.6,1.8-0.2c0.5-1-0.5-1.2-1.2-1.4
		c-1.9-0.6-2.6-1.3-0.5-2.7c0.2-0.2,0.4-0.5,0.4-0.8c0.1-0.6-0.2-1.5,0.7-1.6c1-0.2,1.2,0.6,1.4,1.4c0.2,0.5,0.5,1,1,0.6
		c1.8-1.4,3.7-0.3,5.5-0.2c3.6,0.2,3.6,0.4,3.6-3.2C101.4,98.7,101.4,98.7,101.7,94.5 M76.9,224.3c0.1,0.8-0.4,1.2-1,1.6
		c-1,0.6-1.8,1.5-3,1.8c-0.6,0.1-1.2,0.4-0.9,1.2c0.2,0.7,1,0.7,1.5,0.5c1.8-0.9,3.9-1.4,5.4-3c0.5-0.5,1-1.2,0.6-2
		c-1.3-2.7,0.4-4.5,1.9-6.2c0.7-0.9,1.1-1.5,0.4-2.3c-1.1-1.3-2.2-2.5-3.4-3.6c-0.7-0.7-1.5-0.3-2.3,0.1c-1.1,0.7-1.8,1.5-1.8,2.8
		c0,1.3,1.1,0.9,1.8,1.1c1,0.3,1.8,1.3,1.1,2c-1.8,1.9-2.2,3.7-0.3,5.7C76.9,224.1,76.9,224.2,76.9,224.3 M104.9,112.8
		c-2.5,0.1-3,0.4-3.2,2c-0.2,1.5-0.2,3-0.1,4.4c0,0.5,0.7,0.6,1.2,0.5c0.8-0.1,1.6-0.3,2.4-0.5c0.9-0.3,1.9-1.1,2.8-0.2
		c0.8,0.8-0.2,1.5-0.5,2.2c-0.3,0.7-0.1,1.3,0.5,1.8c0.4,0.3,0.9,0.4,1.1,0.1c0.9-1.4,2.7-2.7,2.6-4.4c-0.1-1.5-1.6-2.7-3.1-3.3
		c-0.6-0.2-1.4-0.1-1.3-1.1C107.5,112.3,106.2,112.6,104.9,112.8 M84,211.2c0,4.5,5.5,7.6,9.4,5.3c0.6-0.4,1.1-0.9,0.8-1.6
		c-0.3-0.7-0.9-0.6-1.5-0.3c-0.8,0.4-1.6,0.5-2.4,0.4c-0.5,0-1.1,0-1.3-0.6c-0.2-0.6,0.2-0.9,0.7-1.2c1.5-0.9,1.9-2.4,1-3.6
		c-1.1-1.4-2.4-3.1-4.7-2.5C83.8,207.7,84.1,209.6,84,211.2 M105.5,168.7c0.6,0.1,2,0.5,2.1-1.1c0.1-1.3-1-1.4-2.1-1.4
		c-1.3,0-1.4-0.9-1.3-1.9c0.2-1.6-0.5-1.9-1.9-1.3c-0.4,0.2-1,0.2-1.5,0.2c-1.7,0-2.4,1-2.3,2.6c0.1,1,0.3,2,0.1,3
		c-0.1,0.4,0,0.8,0.5,1c0.4,0.2,1,0.1,1.1-0.3c0.8-1.8,1.8-2.3,3.4-0.8C103.9,168.9,104.6,168.7,105.5,168.7 M25.6,106.1
		c0-0.7-0.5-1-1-0.9c-2.8,0.3-5.6,0.7-8.4,1.2c-0.5,0.1-0.9,0.5-0.7,1.1c0.1,0.5,0.6,0.8,1.1,0.9c3.1,0.3,5.9,1.4,8.7,2.7
		c0.8,0.4,1.5,0.3,1.8-0.6c0.3-0.9-0.4-1.2-1.1-1.3c-1.9-0.3-2.5-1-0.7-2.5C25.4,106.5,25.5,106.3,25.6,106.1 M107.3,138.4
		c-0.7-0.9-1.3-0.6-1.8-0.5c-0.8,0.1-1.8,0.3-2.3-0.5c-0.7-1.1,0.7-1.2,1.2-1.8c0.9-1.1,0.8-2.3,0.5-3.5c-0.2-0.7-0.9-1.2-1.5-1
		c-1.3,0.6-3.2,0.3-3.7,2.1c-0.5,1.9-0.4,3.9,1.5,5.1C103.1,139.5,105.1,139.3,107.3,138.4 M46.4,109.9c1.8,0.3,2.2-0.5,2.5-1.4
		c0.3-0.9-0.3-1.5-1.2-1.5c-2.2,0.1-3.7-0.5-3.7-3.1c0-0.5-0.6-0.9-1.1-0.7c-1.6,0.8-2.7,2.1-3.5,3.7c-0.2,0.5-0.1,1.3,0.4,1.2
		C42.4,107.8,44.1,111.3,46.4,109.9 M104.2,106.4c0.2,0,0.4,0,0.7,0c1.1,0.1,2.3,0,2.3-1.2c0.1-1.5-1.4-1.1-2.3-1.1
		c-1.5,0-2.3-0.7-2.4-2.2c-0.1-1.8-1.2-1.9-2.3-1c-1.1,0.9-1.9,2.1-2.7,3.2c-0.3,0.4-0.2,1.3,0.3,1.2
		C100.1,104.5,101.8,107.3,104.2,106.4 M90.5,132.8c-3.1,0.2-4.6,2.9-3,5.6c0.4,0.8,1.1,0.5,1.3-0.1c0.7-1.6,1.5-1.3,2.7-0.5
		c0.6,0.4,1.4,0.4,2.1,0.5c0.9,0.2,1.7,0,1.8-1.1c0.1-1-0.5-1.5-1.5-1.5c-1.1,0.1-1.8-0.4-1.7-1.5C92.4,132.7,91.6,132.5,90.5,132.8
		 M88.9,172.4c0.3,0.8-0.3,1.7-0.9,2.6c-0.4,0.6-0.5,1.3,0.3,1.7c0.8,0.4,1.8,0.4,2.1-0.5c0.7-1.8,1.6-3.7,1.2-5.7
		c-0.3-1.5-1.1-1.5-2.1-0.7C88.8,170.4,88.5,171.2,88.9,172.4 M27.8,105.1c3.1,0.5,6.1-0.2,8.9,0.8c0.7,0.3,1.2-0.4,1.3-1.2
		c0.1-0.9,0.4-1.9-0.3-2.6c-0.6-0.6-1.2,0.2-1.7,0.6c-1.5,1.3-3.3,1.3-5.2,1.4C29.8,104.1,28.6,103.7,27.8,105.1 M107.8,155.3
		c-0.6,0.2-1.1,0.6-1.1,1.5c0,1.1,2.3,3.2,3.5,3.2c0.8,0,1.2-0.4,1.2-1.2C111.4,157.8,108.9,155.3,107.8,155.3 M97.1,196.6
		c0.9-0.1,1.7,0,1.9-0.8c0.3-0.9-0.5-1.1-1.2-1.2c-0.5-0.1-0.9-0.3-1.2-0.8c-0.4-0.7-0.8-1.4-1.7-0.8c-0.7,0.4-1.5,1-1.5,1.8
		c0.1,0.9,1.1,0.8,1.8,1.1C95.9,196.3,96.7,196.4,97.1,196.6 M112.9,109.5c-0.6-1.2-1.5-2.4-3-2.8c-0.7-0.2-1.4,0.3-1.2,1.2
		c0.3,1.7,1.4,2.6,3,2.9C112.3,111,112.8,110.5,112.9,109.5 M93.2,111.6c0.7-0.2,1-0.8,1.1-1.6c0.1-0.5-0.1-1.1-0.7-1
		c-0.9,0-1.1,0.8-1.2,1.5C92.2,111.1,92.4,111.5,93.2,111.6"/>
	<path clip-path="url(#SVGID_2_)" fill="#E4E4E4" d="M139.9,63.1c0.2-1-0.1-1.8-0.4-2.7c0.3-1,0.3-2,0-3c-0.1-2.3,0.1-4.7-0.2-7
		c-0.8-6.6,2.8-9.7,8.7-11.5c7-2.1,14.4-2.6,21.7-2.9c7.6-0.3,15.1,0.3,22.5,2c3.9,0.9,6.9,4.4,8.4,8.7c2.6,7.6,2.5,15.2,1.4,22.9
		c-0.6,4.5-1.1,8.9-1.9,13.4c-1.2,7.1-0.4,14.3-0.4,21.5c0,9.3,0.1,18.7,0.1,28c0,3.8,3.5,7.2,7.4,7.3c7,0.2,14-1,21-0.9
		c3.6,0.1,3.6,0,3.6-3.5c0-23.5,0-47-0.1-70.5c0-2.5,0.7-3.3,3.2-3.2c10.7,0.1,21.4,0.5,32,0c15-0.7,25,6.4,32,18.9
		c5.3,9.6,8.3,19.9,10.2,30.6c3.1,17.8,3.5,35.6,1.8,53.6c-1.4,15.6-4.2,31-10.8,45.4c-1,2.1-0.2,2.4,1.7,2.4
		c7.5-0.1,15-0.3,22.5-0.3c1.5,0,1.8-0.7,2.1-1.9c1.5-7.2,3.1-14.3,4.7-21.5c2.2-10.2,4.5-20.5,6.7-30.7c2.1-9.9,4.3-19.8,6.4-29.8
		c2.1-9.8,4.3-19.7,6.4-29.5c2.2-10,4.4-20,6.5-30c0.4-1.8,0.8-3.6,1.1-5.4c0.2-1.4,1.1-1.7,2.3-1.7c3.8,0,7.7,0,11.5,0
		c1.3,0,1.9,0.5,2.1,1.9c3.7,17.8,7.4,35.7,11.1,53.5c3.2,15.1,6.4,30.3,9.6,45.4c3.2,15.1,6.3,30.3,9.4,45.5c0.5,2.5,1.2,5,1.7,7.6
		c0.2,1.2,0.7,1.7,1.9,1.8c7.3,1.1,14.5,2.3,21.9,2c2.1-0.1,2.2-0.6,1.2-2.3c-4.9-8.7-7.9-18.1-9.9-27.8
		c-4.2-20.3-4.6-40.9-2.7-61.4c1.6-17.9,5.3-35.2,14.8-50.8c4.5-7.5,10.1-13.9,18.4-17.3c5.4-2.2,11.1-3,16.9-1.9
		c0.7,0.1,1.5,0.4,2.2,0.3c11.9-0.3,23.8,0.3,35.7-0.6c5.6-0.4,11.2-0.4,16.7-0.4c12.2,0,24.3,0,36.5,0c15.7,0,27.1,9.6,32.5,22.6
		c4,9.6,5,19.8,5.1,30.1c0,1.8-0.7,2.3-2.4,2.2c-1.5-0.1-2.8,0.1-4.1,1.3c-1.5,1.5-7.5,1-9-0.5c-0.8-0.8-0.8-1.8-0.8-2.8
		c0-4.6,0-9.2,0-13.8c0-7.1-4.5-14.1-11.1-16.9c-5.1-2.1-10.4-2.4-15.7-0.9c-5.9,1.7-9.3,6.1-11.5,11.6c-3.6,9.5-4.2,19.1-0.8,28.8
		c1.9,5.4,6.5,8,11.2,10.4c8.1,4.1,16.7,7.1,25,10.7c11.3,5,17.3,14.1,20,25.8c3,13.3,2.7,26.7-0.1,39.9
		c-3,14.2-10.8,24.6-24.7,29.6c-16.2,5.7-31.3-0.1-40.1-14.9c-5.6-9.4-8-19.9-9-30.6c-0.3-3.5-0.3-7-0.5-10.5
		c-0.1-1.5,0.5-2.1,2-2.1c4.3,0.1,8.6-0.2,13,0.5c1.5,0.2,2.3,0.8,2.6,2.5c2,9.8,2.8,19.8,6.1,29.4c1.7,4.9,5.1,6.5,9.3,7.5
		c14.7,3.3,27.1-5.3,29.7-20.3c1.2-6.7,0.9-13.3-0.3-19.9c-1.7-8.6-7.9-13.2-15.2-16.7c-7.6-3.7-15.7-6.3-23.4-10
		c-11.7-5.6-17.5-15.1-19.4-27.5c-1.7-11.2-1.2-22.3,1.1-33.3c0.6-2.9,1.4-5.8,2.6-8.6c0.8-1.8,0.4-2.6-1.7-2.6
		c-10.7,0.1-21.6-0.5-32.2,0.5c-8.1,0.7-16.1-0.1-24.1,0.2c-3.3,0.1-6.4-1-9.7-1.1c-1.7-0.1-3,0.4-4.3,1.5c-4.2,3.9-8.3,8-12.2,12.2
		c-3.7,4-5,9-6.4,13.9c-2.6,9.6-4.5,19.4-4,29.6c0.4,9.2,0.3,18.3,0.7,27.5c0.4,9.8,2.6,19.3,3.8,29c1.2,10.3,8.7,16.7,14.6,24
		c3.5,1,6.7,3.1,10.3,3.5c5.7,0.6,11.4,1.2,17.2,1.3c3.1,0,5.2-1.8,5.7-5c0.9-5.7,1-11.5,1.2-17.2c0.3-8.8,0.1-17.7,0.9-26.5
		c0.2-2.6-1.6-4.3-2.3-6.5c-1.3-4-3.7-5.4-8-5.1c-5.4,0.5-10.8,0.1-16.2,0.1c-1.7,0-2.3-0.6-2.3-2.3c0.1-4.9,0.1-9.8,0-14.7
		c0-1.7,0.6-2.2,2.2-2.2c10.5,0,21,0,31.5,0c1.3,0,2.2,0.5,3,1.5c2.4,2.9,4.3,6.1,6,9.5c0.6,1.1,0.5,2.2,0.5,3.4
		c0,18.3-0.1,36.5,0.2,54.7c0.1,7.2,0.2,14.3,0,21.5c-0.2,5.6-2.2,7.6-7.9,7.8c-7.3,0.2-14.4-1.2-21.6-1.8
		c-4.3-0.4-8.4-0.1-12.7,0.5c-4.4,0.7-9,0.2-13.5-0.2c-17.1-1.5-34.2-2.6-51.4-3.6c-2.1-0.1-4.2-0.8-6.4-0.1c-1.1,0.4-5-2.4-5.4-3.5
		c-0.2-0.6-0.2-1.3,0.2-1.7c1.6-1.3,1-2.8,0.8-4.3c-1.1-9.3-2.1-18.5-3.3-27.8c-0.4-3-1.1-6.1-1.9-9c-1.7-6.5-1.6-13.2-3-19.7
		c-2.5-12.2-4-24.5-6.5-36.6c-1.6-7.6-2.9-15.2-4.6-22.8c-0.3-1.5-0.7-3-1-4.4c-0.2,0-0.4,0-0.6,0.1c-0.7,4-1.5,8.1-2.2,12.1
		c-2.6,15.1-5.6,30.1-9.7,44.9c-1.1,4.1-0.9,8.6-2.3,12.7c-1.9,5.3-3,10.9-6,15.8c-1.4,2.2-1.3,5-1.8,7.5
		c-1.9,9.1-3.9,18.2-5.4,27.4c-0.5,2.8-1.9,5.4-2.8,8.2c-0.5,1.5-2,1.7-3.3,1.7c-3.9-0.1-7.8,0.8-11.6-1.1c-0.7-0.3-1.6-0.1-2.5,0
		c-10,0.2-20,0.3-30,0.4c-4.8,0-9.5-0.4-14.1-1.5c-1-0.2-2-0.2-3-0.2c-12.7,0-25.3-0.1-38,0c-2.2,0-2.9-0.5-2.8-2.8
		c0.1-11,0.1-22,0-33c0-2.1,0.7-3,2.8-3.2c2.6-0.2,5.1-0.6,7.7-1.1c2.2-0.4,3.1,0.1,3,2.6c-0.2,5,0,10-0.1,15c0,1.8,0.4,2.5,2.3,2.5
		c7.4-0.1,14.8-0.1,22.3,0c8.8,0.1,14.3-5,18.4-12.1c4.5-7.9,6.6-16.7,8-25.6c2.6-16.2,2.8-32.5,1-48.8c-1.2-11.2-3.1-22.3-8.8-32.3
		c-4.5-7.9-11.3-11.9-20.5-12c-6.7,0-13.3,0.1-20-0.1c-2.2,0-2.6,0.8-2.6,2.8c0.1,19.8,0,39.5,0,59.3c0,1.5,0.8,3.4-0.7,4.5
		c-2.3,1.7-4.5,3.9-7.7,3.6c-5.8-0.5-11.6-0.8-17.4-0.5c-5.4,0.3-10.8,1.6-16.2,0.5c-2.9-0.6-6-0.1-8.9-1.2
		c-3.2-1.2-5.2-3.7-5.1-7.1c0.5-17.6,0-35.2-0.2-52.7c-0.1-8.4,1.9-16.5,2.9-24.8c0.5-4.1,0.2-8.2,0.3-12.2c0-1.1-0.7-1.3-1.6-1.4
		c-10.3-2.1-20.7-2-31.1-1.4c-2.4,0.1-4.8,0.1-7.2-0.5c-1.4-0.3-2.2,0.1-2.3,1.7c-0.2,2.3-0.3,4.6-0.2,7c-0.3,0.2-0.3,0.4,0,0.6
		c-0.3,0.9-0.4,1.7,0,2.6C147.3,65.5,144.1,65.8,139.9,63.1"/>
	<path clip-path="url(#SVGID_2_)" fill="#E4E4E4" d="M764.4,138c0-24.4,0-48.8,0-73.3c0-2.4,0.7-3.1,3.1-3.1
		c21.8,0.1,43.5,0.1,65.3,0c2.6,0,3.3,0.8,3.2,3.3c-0.2,4.9-0.2,9.8,0,14.7c0.1,2.3-0.7,3-3,3c-16.6-0.1-33.2,0-49.8-0.1
		c-2.4,0-3.1,0.6-3.1,3.1c-0.2,11.3,1.9,22.4,2.6,33.6c0.1,1.8,1.1,2.4,2.6,2c6.1-1.4,12.5-0.1,18.6-1.9c1.8-0.5,4-0.7,5.8,0.7
		c0.6,0.5,1.4,0.2,2.2,0.1c2.5-0.2,4.7,1.3,5.1,3.7c0.3,1.7,1.3,3,1.8,4.6c0.7,2.2,0.2,3.7-1.9,4.7c-3.7,1.7-7.6,2.5-11.6,2.6
		c-6.2,0.2-12.5,0.3-18.7,0.4c-1.5,0-2.4,0.3-2.2,2c0.9,11.2,0,22.5,1.2,33.7c0.3,2.5,1.1,3.3,3.6,3c8.4-1,17-0.3,25.4-1.9
		c3.1-0.6,5.7,2.1,5.3,5.3c-0.1,1-0.1,1.7,0.5,2.5c1.8,2.8,0.7,5-2.7,5.5c-9.2,1.2-18.4,1.9-27.6,2.4c-3.6,0.2-3.6,0.2-3.2,3.7
		c0.7,5.9,1.8,11.7,1.5,17.7c-0.1,2.3,1.4,1.8,2.7,1.8c13.9,0,27.8,0,41.8,0c3.4,0,5.7,1.7,6.8,5c1.1,3.1,0.9,6.4,1.2,9.6
		c0.3,2.7-3.2,6.3-6.1,6.6c-14.1,1.3-28.1,3.1-42.3,2.8c-12.8-0.3-25.5,1.3-38.2,1.3c-16.9,0-33.8,1.4-50.7-1
		c-3.1-0.4-6.3,0.5-9.5,0.2c-8.3-0.7-14.8-4.6-20.4-10.5c-6.5-6.8-10.4-15-13.2-23.8c-7.5-23.5-8.1-47.6-6.4-72
		c0.7-10.5,2.4-20.8,5.3-30.9c2.8-9.7,6.8-18.9,12.7-27.2c15.9-22.4,43.7-18,56.4,1.3c4.4,6.7,7,14.1,8.9,21.8
		c1.2,5,1.8,10.1,2.6,15.2c0.4,2.3-0.4,2.8-2.4,2.7c-2.7-0.1-5.3-0.1-8,0c-2.2,0.1-2.8-0.8-3.1-2.8c-1-7.6-2.8-14.9-7.1-21.4
		c-5.9-8.8-14.1-12.7-24.7-11c-5.2,0.8-9.2,4-12.6,8c-6.2,7.4-9.7,16.1-11.7,25.4c-4.5,20.8-4.4,41.7-1.8,62.7
		c1.3,10.3,3.6,20.3,8.8,29.5c5.9,10.4,15.5,14.8,27.2,12.4c4.1-0.9,7.5-3.1,10.5-5.9c6-5.7,9.3-12.9,11.2-20.8
		c2.1-8.6,2.8-17.4,3.1-26.3c0.1-2.2-0.5-3-2.9-3c-8.4,0.1-16.8,0-25.3,0.1c-2.2,0-2.8-0.7-2.8-2.9c0.2-4.7,0.1-9.3,0-14
		c-0.1-1.9,0.6-2.4,2.4-2.4c12.8,0.1,25.7,0.1,38.5,0c2.3,0,2.3,1.2,2.3,2.8c0,22.3,0,44.5,0,66.8c0,3.6,0,3.6,3.7,3.9
		c5.9,0.5,11.8-0.3,17.7-0.2c1.8,0,1.6-1.3,1.6-2.5c0-8.3,0-16.5,0-24.8C764.4,170.6,764.4,154.3,764.4,138"/>
	<path clip-path="url(#SVGID_2_)" fill="#BF4446" d="M139.9,63.1c4.2,2.8,7.4,2.4,9.8-1c1.6,0.1,3.1,0.1,4.7-0.2
		c6.1-1.2,9.1,0.2,12.2,5.4c0.3,0.5,0.6,1,0.9,1.5c-0.8,0.1-1.5,0.2-1.4,1.2c0,0.5,0.4,0.9,0.9,1c1,0.1,1.2-0.6,1.3-1.4
		c1.1,1.2,2.1,2.5,2.3,4.3c-1.4,0-2.3,1.1-3.4,1.8c-3.1,1.7,0.2,3.6-0.3,5.4c-0.1,0.4,0,0.8,0.4,1.1c0.6,0.4,1.3,0.3,1.9,0
		c0.9-0.4,1.6-1.1,2.2-2c0.4,0.6,0.5,1.2,0.5,1.9c0,10.3,0.7,20.6,0.4,31c-0.2,9.8-2.2,19.3-2.3,29.1c-0.1,4.4-0.8,8.8-1.3,13.1
		c-0.1,1.2-0.1,2.3,0.7,3.3c1.6,1.9,1.7,3.9,0.5,6c-0.7,1.2-0.9,2.2-0.3,3.5c0.3,0.6,0.4,1.6,0.2,2.2c-2.5,6-1.1,12.2-1.3,18.3
		c-0.2,4.8,0.2,9.7-0.3,14.5c-0.2,1.3,0.5,2.2,1.1,3.2c1.7,2.5,3.4,5,2,8.3c-0.4,0.9,0.3,1.6,0.7,2.3c1.3,2,2,4.1,2,6.6
		c0,2.3-0.9,4.1-3.1,4.9c-1.5,0.6-2,1.3-1.3,2.8c0.6,1.4,0,2.6-1.1,3.6c-1.2,1.1-1.6,2.2-1.2,3.8c0.5,2-0.4,3.4-2.4,4
		c-1,0.3-2,0.9-3,1.2c-2.8,0.7-4.6,2.1-4.7,5.2c-0.1,1.2-0.9,2.1-2.3,2.3c-1.4,0.2-2.2-0.5-2.8-1.6c-0.2-0.4-0.6-0.8-0.9-1.1
		c-0.7-0.6-1.5-1-2.5-1c-1.8,0.1-2.3,0.7-1.1,2.2c0.1,2.4,0.7,4.8,0.2,7.2c-0.3,1.6-0.7,3.6-3,3.2c-2.2-0.4-2.3-2.2-2.1-3.9
		c0.2-2.1,0.5-4.1,0.7-6.2c-0.5-1.4-1-2.9-3-2.5c-1.8-0.5-3.4-0.1-4.8,1.2c-0.8,0.7-2,1.4-2.9,0.4c-2.5-3.1-6.3-3.4-9.5-5
		c-2.4-1.2-4.8-2.3-5.9-5c1.3-1.4,0.2-3.2,0.9-4.7c0.7-1.4,0.2-2.6-1.1-3.4c0.5-0.8,0.7-1.7,0.8-2.6c0.9-5.5,0.2-10.9-0.6-16.3
		c-0.2-1.7-0.5-3.5-0.4-5.2c0-1.4-0.2-2.6-1.2-3.7c-1.3-1.3-0.8-3-0.8-4.5c0,0,0,0,0,0c0.2,0,0.3,0,0.5-0.1c0.6-0.3,1.3-0.4,1.7-0.8
		c1.7-1.4,1.6-3.1-0.2-4.2c-1.3-3-0.9-6.3-1.4-9.5c1.2-1.6,2.2-3.4,2.8-5.4c0.6-1.9,0-2.6-1.9-2.7c0.8-3.2-1.4-6-1.5-9
		c0.3-1.2,0.7-2.3,1.7-3.2c1.5-1.3,1.2-2.4-0.4-3.4c-1.9-3.3-1-7.5-3.3-10.8c-0.2-1.4,0.2-2.8,1.1-3.7c2.9-2.9,2.4-5.8,0.7-9
		c-0.6-2.7-1.6-5.5-1-8.2c0.7-3.3,0.4-6.9,2.4-9.9c-0.1-1.3,0.1-2.6,0.8-3.7c0.7-0.5,0.7-1.3,0.5-2c0.1-0.6,0.1-1.3,0.2-1.9
		c0.7-2.7,1.8-5.4,0-8.2c-1.3-2-1.5-3.9,0.3-5.7c0.5-0.5,0.6-1.1,0.5-1.8c0.3-0.5,0.7-0.9,1-1.4c0.3-0.5,0.6-1.1,0.1-1.6
		c-0.5-0.5-1,0.1-1.6,0.3c-1-1.5-1.9-2.9-0.3-4.5c1.4,1.1,1.8-0.2,2.4-1c0.4-0.5,0.8-1.2,0.2-1.8c-0.7-0.6-1.2,0-1.7,0.4
		c-0.6-0.7-0.8-1.6-1-2.5c1.4-2.3,2.8-4.5,4.1-6.8c0.8-1.4,0.7-2.6-1.2-2.9c2.2-7.7,7.9-11.5,15.9-10.6
		C137.7,63.1,138.8,63.1,139.9,63.1 M160.4,119.9c0.1-2.6-0.4-5-2-7c-0.5-0.6-1.1-1.2-1.9-0.7c-1,0.6-0.3,1.3,0.2,1.8
		c1.1,1.4,1.6,3.1,1.6,4.9c0,1.5,0.1,3,0.2,4.5c0,0.5-0.2,1.4,0.6,1.4c0.9,0.1,1-0.8,1-1.4C160.2,122.3,160.3,121.1,160.4,119.9
		 M123,229.5c3.9,1,7.8-1.3,8.6-5.7C129.3,227.1,126.8,229.2,123,229.5 M167.4,177.6c0.1-1.8-2-1.9-3.2-2.9c-1-0.7-1.9-1.4-2.6,0
		c-0.6,1.2-0.5,2.7,1,3.3c0.6,0.3,1.1,0.4,1.4,1.1c0.4,0.9,1.1,1.5,2.2,1.1C167.2,179.8,167.4,178.9,167.4,177.6 M159.4,222.6
		c2.2-1.2,3.5-2.9,3.2-5.5c-0.1-0.4-0.1-0.9-0.6-0.9c-0.5,0-0.6,0.5-0.6,0.9C161.4,219.2,160.6,220.9,159.4,222.6 M159.3,150.5
		c1.5-1.6,1.4-5.9,0-7c-0.3-0.2-0.6-0.4-0.9-0.2c-0.2,0.1-0.3,0.5-0.2,0.6C159.2,145.9,158.8,148.2,159.3,150.5 M156.8,78.6
		c0.1,1.2-0.3,2.3,1,2.6c1.1,0.2,1.7-0.6,2.2-1.4c0.8-1.3,0.8-2.7,0.5-4.1c-0.1-0.7-0.6-1.2-1.4-1.2c-0.8-0.1-1.3,0.3-1.5,1
		C157.2,76.6,156.9,77.8,156.8,78.6 M126,209.3c1.1,2.1,3.2,3,4.8,4.6C130.2,211.3,128.3,210.1,126,209.3 M163.9,157.4
		c-0.8-1.2-1.7-2.5-2.9-4.3C161,155.8,162.2,156.9,163.9,157.4 M153.5,109.5c0.7-0.1,1.3-0.4,1.3-1.2c-0.1-0.8-0.6-1.4-1.4-1.4
		c-0.7-0.1-1.3,0.4-1.3,1.2C152.1,109,152.7,109.4,153.5,109.5 M133,218.6c-0.1-0.7-0.5-1.4-1.4-1.3c-0.8,0-1.4,0.7-1.3,1.5
		c0.1,0.8,0.6,1.4,1.5,1.3C132.6,220,132.9,219.5,133,218.6 M156.4,241c0.8-1.8,0.8-1.8-0.1-3.4C156.2,238.8,155.9,239.8,156.4,241
		 M145.4,147.8c0.1,0.6-0.7,1.2,0.3,2C145.8,149.1,146.1,148.5,145.4,147.8"/>
	<path clip-path="url(#SVGID_2_)" fill="#973435" d="M624.1,190.8c0-2.7,0-4.6,0-6.5c0.1-2.8,1.3-4.4,3.3-4.5
		c1.9-0.1,3.3,1.4,3.8,4.2c0.6,4,1,7.9,0.9,11.9c0,1.6,0.3,2.5,2.1,3c3.1,0.8,4.1,3.3,4.4,6.3c0.1,0.9-0.3,2.1,0.7,2.5
		c0.9,0.4,1.3-0.8,1.9-1.3c1.7-1.3,3.4-1.8,5.3-0.6c1.9,1.2,3.2,3.8,2.4,5.8c-2.1,5.2-3,10.7-4.8,16c-1.3,3.8-3.7,6.7-7.2,8.6
		c-0.4,0.2-0.9,0.5-1.3,0.8c-5.7,4-12,2.5-17-2.5c-5.8-5.8-6.8-13.1-8.3-20.3c-0.4-2-1.3-3.9-1.1-6.1c0.3-3.6,2.5-5.9,6.1-5.9
		c1.8,0,3.2-0.3,4.1-2.1c0.6-1.2,1.9-1.9,3.3-2c1.5-0.1,1.9-0.9,1.8-2.4C624.1,193.8,624.1,191.9,624.1,190.8"/>
	<path clip-path="url(#SVGID_2_)" fill="#973435" d="M65.5,89c-1.7,0.1-3.4-0.1-4.9-1.1c-1.9-1.2-2.7-2.9-2.4-5.1
		c0.3-2,1.7-3.2,3.6-3.7c3-0.8,6.1-0.9,9.1-0.1c3.7,1,4.8,4.8,2.1,7.5C70.9,88.5,68.3,89.2,65.5,89"/>
	<path clip-path="url(#SVGID_2_)" fill="#973435" d="M92.9,239.1c2.7-0.2,5.2,0.1,7.7,1c1.6,0.6,3,1.4,3.6,3.2
		c0.7,2.4-0.5,4.5-3,4.7c-3.7,0.2-7.5,0.4-11.1-0.9c-1.2-0.4-2.2-1.1-3.2-1.9c-1-0.9-1.5-2-1.1-3.3c0.5-1.4,1.4-2.5,3-2.6
		C90.2,239.1,91.6,239.1,92.9,239.1"/>
	<path clip-path="url(#SVGID_2_)" fill="#973435" d="M20.9,236.5c-3.1,0-5.2-1.7-5.2-4.2c0-2.4,1.8-4.1,4.3-4.1
		c2.7,0,4.9,2.3,4.9,4.9C24.9,235.3,23.5,236.5,20.9,236.5"/>
	<path clip-path="url(#SVGID_2_)" fill="#E4E4E4" d="M207.3,40c2.1,0.2,4.5,1.2,6.4,3c0.8,0.8,1.7,1.8,0.7,3c-0.9,1.2-2,1-3.1,0.3
		c-2-1.4-4.5-1.1-6.6-2.1c-0.9-0.4-2.2-0.3-2.3-1.5c-0.1-1.2,1.2-1.6,2-2.3C205,40,205.9,40,207.3,40"/>
	<path clip-path="url(#SVGID_2_)" fill="#973435" d="M94.1,234c-1.9-0.1-3.5-0.7-3.9-2.7c-0.4-2,0.9-3,2.7-3.5
		c0.2,0,0.3-0.1,0.5-0.2c1.7-0.8,3.3-1.1,4.8,0.4c0.9,0.9,1.1,1.9,0.5,3C97.7,232.7,96.3,234,94.1,234"/>
	<path clip-path="url(#SVGID_2_)" fill="#973435" d="M82.5,92.4c0.7-0.3,1.9-1,2.2,0c0.6,2,1.4,1.8,3,0.9c1.3-0.7,2.3,0.4,3.2,1.2
		c1,0.9,1.5,2,1.2,3.3c-0.2,0.9-1,1.4-1.7,0.8c-1.1-0.9-2.2-0.8-3.5-0.7c-1.9,0.2-3-1.1-3.8-2.6C83,94.3,82.9,93.3,82.5,92.4"/>
	<path clip-path="url(#SVGID_2_)" fill="#E4E4E4" d="M120.8,73.6c1.9,0.3,2.1,1.4,1.2,2.9c-1.3,2.3-2.7,4.5-4.1,6.8
		c-1.5,0.2-1.5-0.6-1.1-1.7c0.6-1.4,1.3-2.9,1.9-4.3c0.4-0.8,0.7-1.6-0.8-1.4c-0.7,0.1-0.9-0.4-0.7-1c0.2-0.5,0.5-0.9,1.1-0.5
		C119.9,75.2,119.9,75.2,120.8,73.6 M118.9,76c0.1-0.1,0.1-0.1,0.2-0.2c-0.1-0.1-0.2-0.1-0.3-0.2c0,0-0.1,0.1-0.2,0.2
		C118.7,75.9,118.8,75.9,118.9,76"/>
	<path clip-path="url(#SVGID_2_)" fill="#BF4446" d="M101.7,94.5c-0.2,4.2-0.2,4.2-5.5,5c-0.4-0.4-0.8-0.9-1.2-1.3
		c0-0.8,0-1.6-0.1-2.3C97.1,92.6,99.2,92.2,101.7,94.5"/>
	<path clip-path="url(#SVGID_2_)" fill="#BF4446" d="M177.9,258.8c-1.4,1.1-2.9,1.3-3.9-0.2c-1.2-1.6-0.2-3.2,0.9-4.5
		c1.2-1.3,2.8-1.6,4.3-0.6c1.2,0.8,1,2,0.2,3.1C177.1,256.2,177.7,257.6,177.9,258.8"/>
	<path clip-path="url(#SVGID_2_)" fill="#973435" d="M50.4,91.4c-0.2,1.8-1.1,2.9-2.9,2.9c-1.8,0-2.8-1.1-2.7-2.9
		c0-1.6,1.1-2.6,2.7-2.7C49.3,88.7,50.1,89.9,50.4,91.4"/>
	<path clip-path="url(#SVGID_2_)" fill="#E4E4E4" d="M171.3,80.1c-0.5,0.9-1.2,1.6-2.2,2c-0.6,0.3-1.3,0.4-1.9,0
		c-0.4-0.3-0.5-0.7-0.4-1.1c0.5-1.8-2.8-3.7,0.3-5.4c1.1-0.6,2-1.8,3.4-1.8c0.4,1.1,0.2,2.1,0,3.2c-0.4-0.2-0.5,0.2-0.5,0.4
		c0.1,0.3,0.4,0.4,0.6,0C171,78.3,171.1,79.2,171.3,80.1"/>
	<path clip-path="url(#SVGID_2_)" fill="#E4E4E4" d="M117.3,230.8c1.3,0.8,1.7,2,1.1,3.4c-0.7,1.5,0.4,3.3-0.9,4.7
		c-2.5-0.6-1.5-3-2.2-4.5C114.6,233,115.4,231.4,117.3,230.8"/>
	<path clip-path="url(#SVGID_2_)" fill="#973435" d="M6.9,231.7c1.6,0.2,2.5,0.9,2.5,2.4c-0.1,1.5-1,2.6-2.5,2.6
		c-1.4,0-2.5-1.1-2.5-2.6C4.3,232.5,5.6,232,6.9,231.7"/>
	<path clip-path="url(#SVGID_2_)" fill="#973435" d="M81.3,101.4c0,1.6-0.7,1.9-2,1.1c-1-0.7-2-1.4-3-2.2c-0.7-0.6-0.9-1.4-0.5-2.2
		c0.3-0.7,0.9-0.9,1.6-0.9C78.8,97.2,81.3,99.9,81.3,101.4"/>
	<path clip-path="url(#SVGID_2_)" fill="#E4E4E4" d="M147.6,249.5c-1.3-1.5-0.7-2.1,1.1-2.2c1,0,1.7,0.4,2.5,1
		C150.8,250.5,150.2,250.7,147.6,249.5"/>
	<path clip-path="url(#SVGID_2_)" fill="#BF4446" d="M82.5,92.4c0.4,0.9,0.6,1.9,0.5,3c-0.4,0.2-0.9,0.4-1.3,0.6
		c-0.9,0.3-1.6,0-2.1-0.8c-0.4-0.7-0.6-1.4-0.1-2.1C80.2,92,81.3,91.9,82.5,92.4"/>
	<path clip-path="url(#SVGID_2_)" fill="#E4E4E4" d="M140.5,247.3c2-0.4,2.5,1.1,3,2.5c-0.6,0.8-1.3,1.6-2.4,0.9
		C139.7,249.8,140.1,248.5,140.5,247.3"/>
	<path clip-path="url(#SVGID_2_)" fill="#973435" d="M34.9,85.1c-0.2,1-0.6,1.7-1.6,1.7c-1,0-1.5-0.7-1.5-1.6c0-0.9,0.6-1.3,1.4-1.4
		C34.2,83.7,34.7,84.2,34.9,85.1"/>
	<path clip-path="url(#SVGID_2_)" fill="#E4E4E4" d="M118.9,85.8c0.5-0.5,1-1,1.7-0.4c0.7,0.6,0.2,1.2-0.2,1.8c-0.6,0.8-1,2.1-2.4,1
		C118,87.2,119.1,86.8,118.9,85.8"/>
	<path clip-path="url(#SVGID_2_)" fill="#E4E4E4" d="M118.4,92.7c0.5-0.2,1-0.8,1.6-0.3c0.5,0.5,0.2,1.1-0.1,1.6
		c-0.3,0.5-0.6,0.9-1,1.4C116.8,94.8,118.2,93.6,118.4,92.7"/>
	<path clip-path="url(#SVGID_2_)" fill="#973435" d="M168.4,253.5c-0.1,0.8-0.5,1.4-1.4,1.4c-0.8,0.1-1.3-0.3-1.3-1.1
		c0-0.9,0.5-1.6,1.5-1.6C168,252.2,168.4,252.7,168.4,253.5"/>
	<path clip-path="url(#SVGID_2_)" fill="#973435" d="M49.7,235.7c0,0.7-0.4,1.1-1.1,1.2c-0.8,0.1-1.3-0.3-1.3-1.1
		c0-0.7,0.4-1.1,1.1-1.2C49.2,234.4,49.6,235,49.7,235.7"/>
	<path clip-path="url(#SVGID_2_)" fill="#E4E4E4" d="M177.9,258.8c-0.2-1.2-0.8-2.7,1.5-2.2C179.4,257.7,179.3,258.7,177.9,258.8"/>
	<path clip-path="url(#SVGID_2_)" fill="#BF4446" d="M139.5,57.3c0.3,1,0.3,2,0,3C139.2,59.3,139.2,58.3,139.5,57.3"/>
	<path clip-path="url(#SVGID_2_)" fill="#E4E4E4" d="M168.3,69.6c-0.1,0.8-0.3,1.5-1.3,1.4c-0.5-0.1-0.9-0.4-0.9-1
		c-0.1-1,0.7-1.1,1.4-1.2C167.8,69,168.1,69.3,168.3,69.6"/>
	<path clip-path="url(#SVGID_2_)" fill="#973435" d="M94.9,95.9c0,0.8,0,1.6,0.1,2.3C93.8,97.4,93.9,96.7,94.9,95.9"/>
	<path clip-path="url(#SVGID_2_)" fill="#BF4446" d="M170.8,77.5c-0.2,0.4-0.5,0.3-0.6,0c-0.1-0.2,0-0.6,0.5-0.4
		C170.7,77.2,170.7,77.3,170.8,77.5"/>
	<path clip-path="url(#SVGID_2_)" fill="#BF4446" d="M149.7,59.4c-0.2-0.2-0.2-0.5,0-0.6C149.7,59,149.7,59.2,149.7,59.4"/>
	<path clip-path="url(#SVGID_2_)" fill="#973435" d="M25.2,96.9c0.1,0.1,0.2,0.3,0.2,0.4c0,0.1-0.2,0.1-0.4,0.2
		c-0.1-0.1-0.2-0.3-0.2-0.4C24.9,97,25.1,97,25.2,96.9"/>
	<path clip-path="url(#SVGID_2_)" fill="#525252" d="M115.7,183.9c0.5,3.2,0,6.5,1.4,9.5c-0.8,0.8-1.7,1.6-2.5,2.4
		c-1.3-0.4-2.6-1.2-3.6,0.6c-0.4,0.8-1.1,0.2-1.7-0.2c-3.4-2.5-7.8-3-11.3-5.4c-1.3-0.9-3.4-0.3-5-1.1c-0.4-0.2-1,0-1.3,0.4
		c-0.5,0.6-0.1,1.1,0.4,1.5c0.6,0.5,0.8,1.1,0.4,1.8c-0.5,0.7-1.3,0.5-1.8,0.2c-2.9-1.6-6.4-1-9.2-2.7c-0.5-0.3-1.2-0.1-1.7-0.2
		c-2-0.5-4.4-0.2-5.1-3c-0.2-0.9-1.2-1.4-2-1c-2.6,1.3-4.5-1.1-6.9-1c-0.5,0-1.1-0.4-1.1-1.2c0-0.7,0.7-0.8,1.3-1
		c3.4-1,6.9-1.4,10.3-1.5c3.3-0.1,6.7,0,10,0.1c0.8,0,1.8,0.2,2.5-0.1c3.1-1.5,5,0,7.5,1.9c1.9,1.4,5,3.2,6.9,2.7
		c2.9-0.7,6.6-0.4,8.8-3.4c0.6-0.8,1.3-1.5,2.4-1.8C114.5,182.3,113.2,184.4,115.7,183.9 M87.9,191.2c1.1,0.2,1.9,0.4,2-0.6
		c0.1-1.1-0.6-1.6-1.6-2c-0.9-0.3-2,0.5-2.8-0.4c-0.3-0.3-0.7-0.5-1.1-0.1c-0.4,0.4-0.3,0.9,0,1.4C85.2,191,86.8,191.1,87.9,191.2"
		/>
	<path clip-path="url(#SVGID_2_)" fill="#525252" d="M76.9,224.3c0-0.1,0-0.2,0-0.2c-1.9-2-1.6-3.8,0.3-5.7c0.7-0.8,0-1.7-1.1-2
		c-0.7-0.2-1.9,0.3-1.8-1.1c0-1.3,0.8-2.2,1.8-2.8c0.7-0.5,1.5-0.9,2.3-0.1c1.2,1.2,2.4,2.3,3.4,3.6c0.7,0.8,0.4,1.5-0.4,2.3
		c-1.5,1.7-3.3,3.5-1.9,6.2c0.4,0.8-0.1,1.5-0.6,2c-1.5,1.5-3.6,2-5.4,3c-0.5,0.2-1.3,0.2-1.5-0.5c-0.3-0.8,0.4-1,0.9-1.2
		c1.2-0.3,2-1.2,3-1.8C76.6,225.6,77,225.1,76.9,224.3"/>
	<path clip-path="url(#SVGID_2_)" fill="#525252" d="M115.1,136.9c1.7,3.1,2.2,6.1-0.7,9c-0.9,0.9-1.2,2.3-1.1,3.7
		c-0.1,0.1-0.2,0.3-0.3,0.4c-2.1,0.3-2.9-1.7-4.4-2.5c-1-0.5-0.8-1.9-0.4-3C109.5,141,112,138.7,115.1,136.9"/>
	<path clip-path="url(#SVGID_2_)" fill="#525252" d="M104.9,112.8c1.3-0.2,2.6-0.5,2.4,1.5c-0.1,1,0.7,0.9,1.3,1.1
		c1.5,0.6,3,1.7,3.1,3.3c0.1,1.7-1.6,2.9-2.6,4.4c-0.2,0.4-0.8,0.2-1.1-0.1c-0.6-0.5-0.8-1.1-0.5-1.8c0.3-0.7,1.3-1.4,0.5-2.2
		c-0.9-0.9-1.8-0.1-2.8,0.2c-0.8,0.2-1.6,0.4-2.4,0.5c-0.5,0.1-1.2,0-1.2-0.5c-0.1-1.5,0-3,0.1-4.4
		C101.8,113.2,102.4,112.9,104.9,112.8"/>
	<path clip-path="url(#SVGID_2_)" fill="#525252" d="M84,211.2c0.1-1.6-0.3-3.5,1.9-4c2.3-0.6,3.6,1.1,4.7,2.5
		c0.9,1.2,0.5,2.7-1,3.6c-0.4,0.3-0.9,0.6-0.7,1.2c0.2,0.6,0.8,0.5,1.3,0.6c0.8,0.1,1.7,0,2.4-0.4c0.6-0.3,1.2-0.4,1.5,0.3
		c0.3,0.8-0.1,1.3-0.8,1.6C89.5,218.8,84,215.7,84,211.2"/>
	<path clip-path="url(#SVGID_2_)" fill="#525252" d="M105.5,168.7c-0.9,0-1.6,0.2-1.9,0c-1.6-1.5-2.6-1.1-3.4,0.8
		c-0.2,0.3-0.7,0.5-1.1,0.3c-0.5-0.2-0.6-0.6-0.5-1c0.2-1,0-2-0.1-3c-0.1-1.6,0.5-2.6,2.3-2.6c0.5,0,1,0,1.5-0.2
		c1.4-0.6,2.1-0.3,1.9,1.3c-0.1,1,0,1.9,1.3,1.9c1.1,0,2.3,0.1,2.1,1.4C107.5,169.2,106.2,168.8,105.5,168.7"/>
	<path clip-path="url(#SVGID_2_)" fill="#525252" d="M25.6,106.1c-0.1,0.2-0.2,0.4-0.4,0.6c-1.7,1.4-1.2,2.1,0.7,2.5
		c0.7,0.1,1.4,0.4,1.1,1.3c-0.3,0.9-1,1-1.8,0.6c-2.8-1.3-5.6-2.4-8.7-2.7c-0.5-0.1-1-0.3-1.1-0.9c-0.2-0.6,0.2-1,0.7-1.1
		c2.8-0.4,5.6-0.8,8.4-1.2C25.1,105.1,25.6,105.4,25.6,106.1"/>
	<path clip-path="url(#SVGID_2_)" fill="#525252" d="M107.3,138.4c-2.2,0.8-4.2,1.1-6.1-0.1c-1.9-1.2-2-3.2-1.5-5.1
		c0.4-1.7,2.4-1.5,3.7-2.1c0.7-0.3,1.3,0.3,1.5,1c0.3,1.2,0.5,2.4-0.5,3.5c-0.5,0.6-1.9,0.6-1.2,1.8c0.5,0.8,1.5,0.5,2.3,0.5
		C106,137.8,106.6,137.5,107.3,138.4"/>
	<path clip-path="url(#SVGID_2_)" fill="#525252" d="M46.4,109.9c-2.2,1.4-3.9-2.1-6.6-1.7c-0.5,0.1-0.7-0.7-0.4-1.2
		c0.8-1.6,1.9-2.9,3.5-3.7c0.5-0.3,1.1,0.1,1.1,0.7c0,2.6,1.5,3.1,3.7,3.1c0.8,0,1.5,0.5,1.2,1.5C48.6,109.5,48.1,110.3,46.4,109.9"
		/>
	<path clip-path="url(#SVGID_2_)" fill="#525252" d="M116.6,160.3c1.5,1,1.8,2.1,0.4,3.4c-1,0.9-1.5,2-1.7,3.2
		c-0.7,0.5-0.3,2.1-1.7,1.7c-1-0.3-1.4-1.3-1.5-2.4c0-0.4,0-0.8,0-1.2C111.9,160.4,112.2,160.1,116.6,160.3"/>
	<path clip-path="url(#SVGID_2_)" fill="#525252" d="M104.2,106.4c-2.4,0.9-4.1-1.9-6.5-1.2c-0.5,0.1-0.6-0.8-0.3-1.2
		c0.9-1.1,1.7-2.3,2.7-3.2c1.1-1,2.2-0.8,2.3,1c0.1,1.5,0.8,2.2,2.4,2.2c0.9,0,2.3-0.4,2.3,1.1c-0.1,1.2-1.3,1.3-2.3,1.2
		C104.6,106.3,104.4,106.4,104.2,106.4"/>
	<path clip-path="url(#SVGID_2_)" fill="#525252" d="M90.5,132.8c1.2-0.3,1.9-0.1,1.8,1.4c-0.1,1.2,0.5,1.6,1.7,1.5
		c1-0.1,1.6,0.5,1.5,1.5c-0.1,1.1-0.9,1.3-1.8,1.1c-0.7-0.1-1.6-0.1-2.1-0.5c-1.2-0.8-2-1.1-2.7,0.5c-0.2,0.6-0.9,0.9-1.3,0.1
		C85.9,135.7,87.4,133,90.5,132.8"/>
	<path clip-path="url(#SVGID_2_)" fill="#E4E4E4" d="M115.7,183.9c-2.5,0.4-1.2-1.6-1.7-2.5c0.9-1.8,1.7-3.7,2.6-5.5
		c1.9,0,2.5,0.8,1.9,2.7C117.9,180.5,116.9,182.3,115.7,183.9"/>
	<path clip-path="url(#SVGID_2_)" fill="#525252" d="M118.1,111c-0.1,0.6-0.1,1.3-0.2,1.9c-0.7,0.5-0.8,1.2-0.5,2
		c-0.7,1.1-0.9,2.4-0.8,3.7c-2.8-1-3.6-2.6-3-5.8C114.1,110,116.4,111.2,118.1,111"/>
	<path clip-path="url(#SVGID_2_)" fill="#525252" d="M88.9,172.5c-0.3-1.3-0.1-2,0.6-2.6c1-0.8,1.8-0.9,2.1,0.7
		c0.4,2.1-0.5,3.9-1.2,5.7c-0.4,0.9-1.3,0.9-2.1,0.5c-0.7-0.4-0.7-1.1-0.3-1.7C88.5,174.2,89.1,173.3,88.9,172.5"/>
	<path clip-path="url(#SVGID_2_)" fill="#525252" d="M27.8,105.1c0.9-1.4,2-1,3-1c1.9,0,3.6-0.1,5.2-1.4c0.5-0.4,1.1-1.2,1.7-0.6
		c0.7,0.7,0.4,1.7,0.3,2.6c-0.1,0.8-0.6,1.4-1.3,1.2C33.9,104.9,30.9,105.7,27.8,105.1"/>
	<path clip-path="url(#SVGID_2_)" fill="#525252" d="M107.8,155.3c1.1,0,3.5,2.5,3.6,3.4c0,0.8-0.4,1.2-1.2,1.2
		c-1.1,0.1-3.5-2.1-3.5-3.2C106.7,156,107.3,155.5,107.8,155.3"/>
	<path clip-path="url(#SVGID_2_)" fill="#525252" d="M97.1,196.6c-0.5-0.2-1.2-0.3-1.8-0.6c-0.6-0.3-1.7-0.2-1.8-1.1
		c-0.1-0.9,0.8-1.4,1.5-1.8c0.9-0.6,1.3,0.1,1.7,0.8c0.3,0.5,0.7,0.6,1.2,0.8c0.6,0.2,1.4,0.3,1.2,1.2
		C98.9,196.6,98,196.5,97.1,196.6"/>
	<path clip-path="url(#SVGID_2_)" fill="#E4E4E4" d="M114.6,195.8c0.8-0.8,1.7-1.6,2.5-2.4c1.8,1.1,1.9,2.8,0.2,4.2
		c-0.5,0.4-1.2,0.6-1.7,0.8c-0.2-0.2-0.4-0.4-0.5-0.6C114.4,197.3,114.6,196.5,114.6,195.8"/>
	<path clip-path="url(#SVGID_2_)" fill="#525252" d="M112.9,109.5c-0.1,1-0.5,1.5-1.3,1.3c-1.6-0.3-2.7-1.3-3-2.9
		c-0.1-0.8,0.6-1.3,1.2-1.2C111.4,107.1,112.3,108.3,112.9,109.5"/>
	<path clip-path="url(#SVGID_2_)" fill="#BF4446" d="M93.2,111.6c-0.7-0.1-0.9-0.6-0.8-1.1c0.1-0.7,0.3-1.5,1.2-1.5
		c0.6,0,0.8,0.5,0.7,1C94.2,110.8,93.9,111.4,93.2,111.6"/>
	<path clip-path="url(#SVGID_2_)" fill="#525252" d="M115,197.9c0.2,0.2,0.4,0.4,0.5,0.6c-0.2,0-0.3,0-0.5,0.1
		C115,198.4,115,198.1,115,197.9"/>
	<path clip-path="url(#SVGID_2_)" fill="#E4E4E4" d="M160.4,119.9c-0.1,1.2-0.1,2.3-0.3,3.5c-0.1,0.6-0.1,1.5-1,1.4
		c-0.8-0.1-0.6-0.9-0.6-1.4c-0.1-1.5-0.2-3-0.2-4.5c0-1.8-0.5-3.4-1.6-4.9c-0.5-0.6-1.1-1.2-0.2-1.9c0.8-0.5,1.4,0.1,1.9,0.7
		C160,115,160.5,117.4,160.4,119.9"/>
	<path clip-path="url(#SVGID_2_)" fill="#E4E4E4" d="M123,229.5c3.7-0.2,6.2-2.4,8.6-5.7C130.8,228.1,127,230.5,123,229.5"/>
	<path clip-path="url(#SVGID_2_)" fill="#E4E4E4" d="M167.4,177.6c0,1.4-0.2,2.2-1.2,2.6c-1.1,0.4-1.8-0.1-2.2-1.1
		c-0.3-0.7-0.8-0.8-1.4-1.1c-1.5-0.6-1.6-2.1-1-3.3c0.7-1.4,1.7-0.7,2.6,0C165.5,175.7,167.5,175.7,167.4,177.6"/>
	<path clip-path="url(#SVGID_2_)" fill="#E4E4E4" d="M159.4,222.6c1.1-1.7,2-3.4,1.9-5.5c0-0.4,0.1-0.9,0.6-0.9
		c0.5,0,0.6,0.5,0.6,0.9C162.9,219.8,161.6,221.5,159.4,222.6"/>
	<path clip-path="url(#SVGID_2_)" fill="#E4E4E4" d="M159.3,150.5c-0.5-2.3-0.1-4.6-1.1-6.6c-0.1-0.1,0.1-0.5,0.2-0.6
		c0.3-0.2,0.6-0.1,0.9,0.2C160.7,144.6,160.8,148.9,159.3,150.5"/>
	<path clip-path="url(#SVGID_2_)" fill="#E4E4E4" d="M156.8,78.6c0.2-0.8,0.4-2,0.7-3.1c0.2-0.7,0.8-1.1,1.5-1
		c0.8,0.1,1.2,0.5,1.4,1.2c0.3,1.4,0.3,2.8-0.5,4.1c-0.5,0.8-1.1,1.6-2.2,1.4C156.5,80.9,156.8,79.8,156.8,78.6"/>
	<path clip-path="url(#SVGID_2_)" fill="#E4E4E4" d="M126,209.3c2.3,0.8,4.2,2,4.8,4.6C129.2,212.3,127.1,211.4,126,209.3"/>
	<path clip-path="url(#SVGID_2_)" fill="#E4E4E4" d="M163.9,157.4c-1.8-0.6-2.9-1.7-2.9-4.3C162.2,155,163.1,156.2,163.9,157.4"/>
	<path clip-path="url(#SVGID_2_)" fill="#E4E4E4" d="M153.5,109.5c-0.8-0.1-1.4-0.5-1.4-1.4c0-0.8,0.5-1.2,1.3-1.2
		c0.8,0.1,1.4,0.6,1.4,1.4S154.2,109.5,153.5,109.5"/>
	<path clip-path="url(#SVGID_2_)" fill="#E4E4E4" d="M133,218.6c0,0.9-0.4,1.4-1.2,1.5c-0.9,0.1-1.4-0.5-1.5-1.3
		c-0.1-0.8,0.5-1.5,1.3-1.5C132.5,217.3,132.9,218,133,218.6"/>
	<path clip-path="url(#SVGID_2_)" fill="#E4E4E4" d="M156.4,241c-0.5-1.2-0.2-2.2-0.1-3.4C157.2,239.2,157.2,239.2,156.4,241"/>
	<path clip-path="url(#SVGID_2_)" fill="#E4E4E4" d="M145.4,147.8c0.6,0.6,0.3,1.2,0.3,2C144.7,149.1,145.5,148.5,145.4,147.8"/>
	<path clip-path="url(#SVGID_2_)" fill="#973435" d="M117.4,115c-0.3-0.8-0.1-1.5,0.5-2C118,113.7,118,114.5,117.4,115"/>
	<path clip-path="url(#SVGID_2_)" fill="#525252" d="M118.9,76c-0.1-0.1-0.2-0.1-0.3-0.2c0.1-0.1,0.1-0.2,0.2-0.2
		c0.1,0,0.2,0.1,0.3,0.2C119,75.9,118.9,75.9,118.9,76"/>
	<path clip-path="url(#SVGID_2_)" fill="#973435" d="M87.9,191.2c-1.1-0.1-2.7-0.1-3.5-1.7c-0.2-0.5-0.4-1,0-1.4
		c0.4-0.4,0.8-0.2,1.1,0.1c0.8,0.9,1.9,0.1,2.8,0.4c0.9,0.3,1.7,0.9,1.6,2C89.7,191.6,89,191.4,87.9,191.2"/>
</g>
</svg>